<svg version="1.1" xmlns="http://www.w3.org/2000/svg" fill="green" width="50" height="50" viewBox="0 0 32 32">
<path d="M20 29.073h-8c-0.368 0-0.667-0.299-0.667-0.667v-5.333c0-0.368 0.299-0.667 0.667-0.667h8c0.367 0 0.667 0.299 0.667 0.667v5.333c0 0.368-0.3 0.667-0.667 0.667zM12.667 27.74h6.667v-4h-6.667v4zM15.855 31.593c-1.507 0-2.732-1.225-2.732-2.732 0-0.365 0.299-0.667 0.667-0.667s0.667 0.301 0.667 0.667c0 0.771 0.628 1.399 1.399 1.399 0.772 0 1.4-0.628 1.4-1.399 0-0.365 0.299-0.667 0.667-0.667 0.367 0 0.667 0.301 0.667 0.667 0 1.507-1.227 2.732-2.733 2.732zM20 23.74h-8c-0.368 0-0.667-0.299-0.667-0.667v-1.433c-2.772-1.441-4.607-4.601-4.607-8.009 0-4.703 4.392-8.829 9.4-8.829 4.945 0 9.125 4.043 9.125 8.829 0 3.468-1.787 6.561-4.584 8.009v1.432c-0.001 0.369-0.301 0.668-0.668 0.668zM12.667 22.407h6.667v-1.184c0-0.263 0.155-0.501 0.395-0.608 2.507-1.121 4.192-3.927 4.192-6.983 0-4.064-3.568-7.496-7.792-7.496-4.297 0-8.067 3.503-8.067 7.496 0 3.049 1.693 5.856 4.212 6.983 0.24 0.107 0.395 0.345 0.395 0.608v1.184zM16 3.073c-0.368 0-0.667-0.299-0.667-0.667v-1.333c0-0.368 0.299-0.667 0.667-0.667s0.667 0.299 0.667 0.667v1.333c0 0.368-0.299 0.667-0.667 0.667zM4.667 14.407h-1.333c-0.368 0-0.667-0.299-0.667-0.667s0.299-0.667 0.667-0.667h1.333c0.368 0 0.667 0.299 0.667 0.667s-0.299 0.667-0.667 0.667zM28.667 14.407h-1.333c-0.367 0-0.667-0.299-0.667-0.667s0.3-0.667 0.667-0.667h1.333c0.367 0 0.667 0.299 0.667 0.667s-0.3 0.667-0.667 0.667zM7.044 23.361c-0.171 0-0.341-0.065-0.472-0.195-0.26-0.26-0.26-0.685 0-0.943l0.943-0.943c0.26-0.26 0.683-0.26 0.943 0 0.26 0.257 0.26 0.683 0 0.943l-0.943 0.943c-0.129 0.131-0.3 0.195-0.471 0.195zM24.013 6.392c-0.171 0-0.341-0.065-0.472-0.195-0.26-0.257-0.26-0.683 0-0.943l0.943-0.943c0.26-0.257 0.684-0.257 0.943 0 0.26 0.26 0.26 0.685 0 0.943l-0.943 0.943c-0.129 0.129-0.299 0.195-0.471 0.195zM24.956 23.361c-0.171 0-0.341-0.065-0.472-0.195l-0.943-0.943c-0.26-0.26-0.26-0.685 0-0.943 0.26-0.26 0.683-0.26 0.943 0l0.943 0.943c0.26 0.257 0.26 0.683 0 0.943-0.129 0.131-0.299 0.195-0.471 0.195zM7.987 6.392c-0.171 0-0.341-0.065-0.472-0.195l-0.944-0.944c-0.26-0.257-0.26-0.683 0-0.943 0.26-0.257 0.683-0.257 0.943 0l0.944 0.943c0.26 0.26 0.26 0.685 0 0.943-0.129 0.131-0.3 0.196-0.471 0.196zM16 21.74c-0.368 0-0.667-0.299-0.667-0.667v-12c0-0.335 0.249-0.619 0.581-0.661 0.335-0.055 0.644 0.167 0.731 0.491 0.275 1.036 0.931 2.023 1.567 2.975 1.365 2.045 2.913 4.367 0.18 7.084-0.261 0.257-0.683 0.257-0.944-0.003-0.257-0.261-0.257-0.684 0.003-0.943 1.864-1.853 1.123-3.192-0.349-5.399-0.145-0.219-0.292-0.437-0.436-0.66v9.116c0.001 0.368-0.297 0.667-0.665 0.667zM14.417 20.156c-0.215 0-0.425-0.1-0.555-0.296-3.977-5.923-0.299-9.404 1.679-11.272 0.267-0.251 0.689-0.241 0.943 0.028 0.253 0.268 0.241 0.691-0.027 0.943-2.549 2.409-4.58 4.953-1.488 9.561 0.205 0.305 0.124 0.72-0.181 0.923-0.113 0.077-0.243 0.113-0.371 0.113z"></path>
</svg>