<svg version="1.1" xmlns="http://www.w3.org/2000/svg" fill="green" width="50" height="50" viewBox="0 0 32 32">
        <path d="M26.667 27.333h-21.333c-2.941 0-5.333-2.392-5.333-5.333v-12c0-2.941 2.392-5.333 5.333-5.333h21.333c2.941 0 5.333 2.392 5.333 5.333v12c0 2.941-2.392 5.333-5.333 5.333zM5.333 6c-2.205 0-4 1.795-4 4v12c0 2.205 1.795 4 4 4h21.333c2.205 0 4-1.795 4-4v-12c0-2.205-1.795-4-4-4h-21.333zM4 16.667h5.333v1.333h-5.333v-1.333zM4 19.333h10.667v1.333h-10.667v-1.333zM24 22c0-0.984 0.539-1.835 1.333-2.297-0.393-0.229-0.845-0.369-1.333-0.369-1.472 0-2.667 1.195-2.667 2.667s1.195 2.667 2.667 2.667c0.488 0 0.94-0.14 1.333-0.369-0.795-0.464-1.333-1.313-1.333-2.297zM26.667 22c0-0.984-0.539-1.835-1.333-2.297 0.393-0.229 0.845-0.369 1.333-0.369 1.472 0 2.667 1.195 2.667 2.667s-1.195 2.667-2.667 2.667c-0.488 0-0.94-0.14-1.333-0.369 0.795-0.464 1.333-1.313 1.333-2.297z"></path>
        </svg>