<svg version="1.1" xmlns="http://www.w3.org/2000/svg" fill="green" width="50" height="50" viewBox="0 0 32 32">
        <path d="M31.251 17.195h-30.667c-0.367 0-0.667-0.3-0.667-0.667v-16c0-0.367 0.3-0.667 0.667-0.667h30.667c0.367 0 0.667 0.3 0.667 0.667v16c0 0.367-0.3 0.667-0.667 0.667zM1.249 15.861h29.333v-14.667h-29.333v14.667zM8.084 24.139c-0.368 0-0.667-0.3-0.667-0.667 0-1.103-0.897-2-2-2s-2 0.897-2 2c0 0.367-0.299 0.667-0.667 0.667s-0.667-0.3-0.667-0.667c0-1.839 1.495-3.333 3.333-3.333s3.333 1.495 3.333 3.333c0 0.368-0.299 0.667-0.667 0.667zM18.751 24.139c-0.367 0-0.667-0.3-0.667-0.667 0-1.103-0.896-2-2-2-1.103 0-2 0.897-2 2 0 0.367-0.299 0.667-0.667 0.667s-0.667-0.3-0.667-0.667c0-1.839 1.495-3.333 3.333-3.333 1.837 0 3.333 1.495 3.333 3.333 0 0.368-0.297 0.667-0.667 0.667zM29.417 24.139c-0.367 0-0.667-0.3-0.667-0.667 0-1.103-0.896-2-2-2-1.101 0-2 0.897-2 2 0 0.367-0.297 0.667-0.667 0.667-0.367 0-0.667-0.3-0.667-0.667 0-1.839 1.495-3.333 3.333-3.333s3.333 1.495 3.333 3.333c0 0.368-0.297 0.667-0.667 0.667zM8.084 32.139c-0.368 0-0.667-0.3-0.667-0.667 0-1.103-0.897-2-2-2s-2 0.897-2 2c0 0.367-0.299 0.667-0.667 0.667s-0.667-0.3-0.667-0.667c0-1.839 1.495-3.333 3.333-3.333s3.333 1.495 3.333 3.333c0 0.368-0.299 0.667-0.667 0.667zM18.751 32.139c-0.367 0-0.667-0.3-0.667-0.667 0-1.103-0.896-2-2-2-1.103 0-2 0.897-2 2 0 0.367-0.299 0.667-0.667 0.667s-0.667-0.3-0.667-0.667c0-1.839 1.495-3.333 3.333-3.333 1.837 0 3.333 1.495 3.333 3.333 0 0.368-0.297 0.667-0.667 0.667zM29.417 32.139c-0.367 0-0.667-0.3-0.667-0.667 0-1.103-0.896-2-2-2-1.101 0-2 0.897-2 2 0 0.367-0.297 0.667-0.667 0.667-0.367 0-0.667-0.3-0.667-0.667 0-1.839 1.495-3.333 3.333-3.333s3.333 1.495 3.333 3.333c0 0.368-0.297 0.667-0.667 0.667zM2.751 28.139c-0.368 0-0.667-0.3-0.667-0.667 0-1.103-0.897-2-2-2-0.368 0-0.667-0.3-0.667-0.667s0.299-0.667 0.667-0.667c1.839 0 3.333 1.495 3.333 3.333 0 0.368-0.299 0.667-0.667 0.667zM29.251 28.139c-0.367 0-0.667-0.3-0.667-0.667 0-1.839 1.495-3.333 3.333-3.333 0.367 0 0.667 0.3 0.667 0.667s-0.3 0.667-0.667 0.667c-1.104 0-2 0.897-2 2 0 0.368-0.3 0.667-0.667 0.667zM13.417 28.139c-0.368 0-0.667-0.3-0.667-0.667 0-1.103-0.897-2-2-2s-2 0.897-2 2c0 0.367-0.299 0.667-0.667 0.667s-0.667-0.3-0.667-0.667c0-1.839 1.495-3.333 3.333-3.333s3.333 1.495 3.333 3.333c0 0.368-0.299 0.667-0.667 0.667zM24.084 28.139c-0.367 0-0.667-0.3-0.667-0.667 0-1.103-0.896-2-2-2-1.101 0-2 0.897-2 2 0 0.367-0.297 0.667-0.667 0.667-0.367 0-0.667-0.3-0.667-0.667 0-1.839 1.495-3.333 3.333-3.333s3.333 1.495 3.333 3.333c0 0.368-0.297 0.667-0.667 0.667z"></path>
        </svg>