<svg version="1.1" xmlns="http://www.w3.org/2000/svg" fill="green" width="50" height="50" viewBox="0 0 32 32">
        <path d="M7.411 25.183c-2.289 0-4.521-0.14-6.827-0.429-0.333-0.045-0.584-0.329-0.584-0.665v-16.001c0-0.191 0.083-0.373 0.225-0.5s0.332-0.187 0.524-0.161c2.252 0.284 4.433 0.421 6.669 0.421 3.048 0 5.831-0.26 8.521-0.511 2.721-0.256 5.533-0.519 8.645-0.519 2.292 0 4.525 0.141 6.831 0.431 0.335 0.041 0.584 0.325 0.584 0.661v16.001c0 0.192-0.084 0.373-0.225 0.5-0.144 0.127-0.336 0.185-0.525 0.161-2.251-0.284-4.432-0.421-6.667-0.421-3.052 0-5.833 0.26-8.525 0.513-2.72 0.255-5.535 0.519-8.647 0.519zM1.335 23.5c2.044 0.235 4.037 0.351 6.076 0.351 3.049 0 5.833-0.261 8.524-0.513 2.723-0.253 5.536-0.52 8.648-0.52 2.041 0 4.040 0.112 6.084 0.344v-14.66c-2.044-0.236-4.037-0.351-6.080-0.351-3.049 0-5.833 0.26-8.524 0.513-2.721 0.253-5.533 0.517-8.644 0.517-2.044 0-4.041-0.112-6.087-0.343v14.661zM7.411 22.516c-1.385 0-2.736-0.055-4.129-0.167-0.367-0.028-0.64-0.351-0.611-0.716 0.029-0.367 0.349-0.644 0.719-0.612 1.359 0.109 2.675 0.164 4.023 0.164 0.368 0 0.667 0.299 0.667 0.667-0.001 0.365-0.3 0.664-0.668 0.664zM28.668 10.981c-0.017 0-0.035 0-0.055-0.001-1.349-0.109-2.665-0.163-4.028-0.163-0.367 0-0.667-0.299-0.667-0.667s0.3-0.667 0.667-0.667c1.396 0 2.749 0.055 4.135 0.165 0.365 0.031 0.639 0.352 0.611 0.719-0.025 0.348-0.319 0.613-0.663 0.613zM15.391 18.945c-1.289 0-2.191-0.797-2.191-1.937 0-0.365 0.299-0.667 0.667-0.667s0.667 0.3 0.667 0.667c0 0.528 0.537 0.604 0.857 0.604s0.857-0.079 0.857-0.604c0-0.308 0-0.357-0.911-0.805l-0.485-0.24c-0.887-0.437-1.652-0.815-1.652-2 0-1.147 0.901-1.948 2.191-1.948 1.277 0 2.169 0.801 2.169 1.948 0 0.368-0.3 0.667-0.667 0.667-0.368 0-0.667-0.299-0.667-0.667 0-0.507-0.455-0.615-0.836-0.615-0.32 0-0.857 0.080-0.857 0.615 0 0.309 0 0.356 0.909 0.804l0.485 0.241c0.888 0.437 1.656 0.815 1.656 2.001-0.003 1.139-0.904 1.936-2.193 1.936zM15.335 12.151c-0.173 0-0.347-0.065-0.467-0.2-0.12-0.107-0.2-0.28-0.2-0.467s0.080-0.36 0.2-0.48c0.24-0.24 0.693-0.24 0.933 0.013 0.133 0.12 0.2 0.293 0.2 0.467s-0.067 0.348-0.2 0.467c-0.12 0.135-0.293 0.2-0.467 0.2zM14.668 11.484h1.333v1.333h-1.333v-1.333zM15.335 20.151c-0.173 0-0.347-0.065-0.467-0.2-0.12-0.107-0.2-0.279-0.2-0.467 0-0.173 0.067-0.347 0.2-0.467 0.24-0.253 0.693-0.253 0.947 0 0.12 0.133 0.187 0.293 0.187 0.467s-0.067 0.349-0.2 0.467c-0.12 0.135-0.293 0.2-0.467 0.2zM14.668 18.151h1.333v1.333h-1.333v-1.333z"></path>
        </svg>