<svg version="1.1" xmlns="http://www.w3.org/2000/svg" fill="green" width="50" height="50" viewBox="0 0 32 32">
        <path d="M16 28.191c-4.223 0-6.952-2.316-6.952-5.904 0-0.367 0.299-0.667 0.667-0.667s0.667 0.3 0.667 0.667c0 3.369 2.903 4.571 5.619 4.571s5.619-1.197 5.619-4.571c0-2.769-1.44-3.479-4.917-5.195l-1.996-0.989c-3.528-1.74-5.659-2.791-5.659-6.389 0-3.557 2.795-5.948 6.952-5.948 4.169 0 6.865 2.335 6.865 5.948 0 0.368-0.3 0.667-0.667 0.667s-0.667-0.299-0.667-0.667c0-3.401-2.857-4.615-5.532-4.615-2.592 0-5.619 1.208-5.619 4.615 0 2.769 1.439 3.479 4.916 5.195l1.995 0.988c3.531 1.74 5.661 2.791 5.661 6.389 0.001 3.587-2.728 5.905-6.952 5.905zM15.944 4.667c-0.368 0-0.667-0.299-0.667-0.667v-2.667c0-0.368 0.299-0.667 0.667-0.667s0.667 0.299 0.667 0.667v2.667c0 0.368-0.299 0.667-0.667 0.667zM15.944 31.333c-0.368 0-0.667-0.3-0.667-0.667v-2.667c0-0.367 0.299-0.667 0.667-0.667s0.667 0.3 0.667 0.667v2.667c0 0.367-0.299 0.667-0.667 0.667z"></path>
        </svg>