<svg version="1.1" xmlns="http://www.w3.org/2000/svg" fill="green" width="50" height="50" viewBox="0 0 32 32">
        <path d="M18.541 26.459h-5.084c-5.808 0-5.875-15.028-5.875-15.667 0-4.837 4.773-8.899 8.219-9.972 0.131-0.037 0.267-0.037 0.396 0 3.445 1.073 8.219 5.104 8.219 9.888 0 0.644-0.067 15.751-5.875 15.751zM16 2.159c-2.967 1.021-7.084 4.583-7.084 8.633 0 5.952 1.411 14.333 4.541 14.333h5.084c3.133 0 4.54-8.431 4.54-14.417 0.001-4-4.116-7.529-7.081-8.549zM9.375 31.208c-0.051 0-0.1-0.005-0.149-0.017-0.211-0.048-0.387-0.196-0.469-0.397l-2.751-6.751c-0.105-0.256-0.040-0.552 0.165-0.744l2.939-2.719c0.269-0.251 0.691-0.235 0.943 0.035 0.251 0.271 0.233 0.695-0.037 0.943l-2.599 2.407 2.219 5.445 4.587-4.117c0.273-0.251 0.695-0.225 0.941 0.051 0.247 0.273 0.223 0.695-0.051 0.941l-5.292 4.751c-0.125 0.113-0.284 0.173-0.445 0.173zM22.625 31.208c-0.163 0-0.321-0.060-0.445-0.169l-5.292-4.751c-0.275-0.248-0.299-0.668-0.051-0.941 0.247-0.273 0.667-0.299 0.941-0.051l4.585 4.117 2.219-5.445-2.597-2.407c-0.271-0.251-0.288-0.672-0.037-0.943 0.249-0.271 0.672-0.289 0.943-0.035l2.939 2.719c0.203 0.192 0.269 0.483 0.165 0.744l-2.751 6.751c-0.081 0.2-0.255 0.349-0.468 0.397-0.051 0.008-0.101 0.013-0.151 0.013z"></path>
        </svg>